<svg width="121" height="40" viewBox="0 0 121 40" fill="none" xmlns="http://www.w3.org/2000/svg">
<g clip-path="url(#clip0_33_165)">
<path d="M20 0C9 0 0 9 0 20C0 31 9 40 20 40C31 40 40 31 40 20C40 9 31.1 0 20 0ZM29.2017 28.9C28.8017 29.4983 28.1017 29.7 27.5 29.3C22.8 26.4 16.9 25.7983 9.89833 27.3983C9.20167 27.6017 8.6 27.1 8.4 26.5C8.2 25.7983 8.7 25.2 9.3 25C16.9 23.2983 23.5 24 28.7 27.2C29.4 27.5 29.4983 28.2983 29.2017 28.9ZM31.6017 23.4C31.1 24.1 30.2 24.4 29.4983 23.9C24.1 20.6 15.9 19.6 9.6 21.6C8.80167 21.8 7.9 21.4 7.7 20.6C7.5 19.8 7.9 18.8983 8.7 18.6983C16 16.5 25 17.6017 31.2 21.4C31.8017 21.7017 32.1 22.7 31.6017 23.4ZM31.8017 17.8C25.4 14 14.7 13.6 8.6 15.5017C7.6 15.8 6.6 15.2 6.3 14.3C6 13.2983 6.6 12.3 7.5 11.9983C14.6 9.89833 26.3 10.2983 33.7017 14.7C34.6 15.2 34.9 16.4 34.4 17.3C33.9017 18.0017 32.7 18.2983 31.8017 17.8Z" fill="white"/>
</g>
<path d="M57.6558 10.38L57.7758 9.45C57.7758 8.53 57.4158 7.94 56.6958 7.68C56.1358 7.5 55.7058 7.41 55.4058 7.41H55.3758C54.7758 7.41 54.2558 7.51 53.8158 7.71C53.3758 7.89 53.0558 8.12 52.8558 8.4C52.4358 8.98 52.1958 9.59 52.1358 10.23C52.1358 10.99 52.4758 11.65 53.1558 12.21C53.8358 12.75 54.6558 13.23 55.6158 13.65C56.5958 14.05 57.5658 14.49 58.5258 14.97C59.5058 15.45 60.3358 16.14 61.0158 17.04C61.6958 17.94 62.0358 19.02 62.0358 20.28C62.0358 22.74 61.2558 24.58 59.6958 25.8C58.1558 27.02 56.3958 27.63 54.4158 27.63C52.4558 27.63 50.8258 27.19 49.5258 26.31C48.2458 25.41 47.6058 24.21 47.6058 22.71V22.68C47.6058 21.94 47.7158 21.3 47.9358 20.76C48.1758 20.2 48.4558 19.79 48.7758 19.53C49.4358 18.99 50.0358 18.7 50.5758 18.66L50.9358 18.63C51.4958 18.63 52.0058 18.77 52.4658 19.05C52.9258 19.31 53.1558 19.68 53.1558 20.16C53.1558 20.4 53.0258 20.6 52.7658 20.76C52.5058 20.92 52.2758 21.16 52.0758 21.48C51.8958 21.8 51.7958 22.07 51.7758 22.29L51.7158 22.62C51.7158 23.84 52.2758 24.65 53.3958 25.05C53.7958 25.19 54.1158 25.26 54.3558 25.26C55.4558 25.26 56.3358 24.93 56.9958 24.27C57.6758 23.61 58.0158 22.77 58.0158 21.75C58.0158 20.53 57.4958 19.54 56.4558 18.78C55.6758 18.22 54.8258 17.75 53.9058 17.37C53.0058 16.99 52.3958 16.72 52.0758 16.56C51.7558 16.4 51.4158 16.21 51.0558 15.99C50.6958 15.77 50.2958 15.46 49.8558 15.06C48.8958 14.22 48.4158 13.09 48.4158 11.67C48.4158 10.23 48.8058 9.02 49.5858 8.04C50.9858 6.26 53.0858 5.37 55.8858 5.37C57.3658 5.37 58.6158 5.66 59.6358 6.24C60.6558 6.8 61.1658 7.58 61.1658 8.58C61.1658 9.3 60.9558 9.9 60.5358 10.38C60.1358 10.86 59.6158 11.1 58.9758 11.1C58.6758 11.1 58.3758 11.04 58.0758 10.92C57.7958 10.8 57.6558 10.62 57.6558 10.38ZM63.7088 22.41C63.7488 20.39 63.7688 18.73 63.7688 17.43C63.7688 16.13 63.6788 14.89 63.4988 13.71C63.4988 13.51 63.6988 13.41 64.0988 13.41C64.4988 13.41 64.8388 13.46 65.1188 13.56C65.4188 13.66 65.6288 13.77 65.7488 13.89C66.0688 14.21 66.2488 14.37 66.2888 14.37C66.3488 14.37 66.5088 14.28 66.7688 14.1C67.5488 13.6 68.4088 13.35 69.3488 13.35C70.3088 13.35 71.1388 13.59 71.8388 14.07C72.5588 14.55 73.0688 15.18 73.3688 15.96C73.9088 17.3 74.1788 18.72 74.1788 20.22C74.1788 21.7 73.9088 23.18 73.3688 24.66C73.0688 25.46 72.6288 26.12 72.0488 26.64C71.4688 27.14 70.7888 27.39 70.0088 27.39C68.4688 27.39 67.6988 26.5 67.6988 24.72C67.6988 24.24 67.7988 24 67.9988 24C68.0388 24 68.1488 24.05 68.3288 24.15C68.5288 24.23 68.7188 24.27 68.8988 24.27C70.3188 24.27 71.0288 22.77 71.0288 19.77C71.0288 16.75 70.2688 15.24 68.7488 15.24C68.3288 15.24 67.9688 15.34 67.6688 15.54C67.3888 15.72 67.2088 15.9 67.1288 16.08L67.0088 16.38C66.7288 18.18 66.5888 21.65 66.5888 26.79C66.5888 29.11 66.6288 30.77 66.7088 31.77C66.8088 32.79 66.8588 33.4 66.8588 33.6C66.8588 33.8 66.7988 33.98 66.6788 34.14C66.2788 34.66 65.7388 35.12 65.0588 35.52C64.3788 35.94 63.7788 36.15 63.2588 36.15C63.0588 36.15 62.9588 36.02 62.9588 35.76C63.2788 33.74 63.5288 29.29 63.7088 22.41ZM78.5949 15.69C78.0749 15.71 77.6949 15.73 77.4549 15.75C77.2349 15.75 77.1249 15.69 77.1249 15.57C77.1249 15.45 77.1849 15.33 77.3049 15.21C78.5849 14.03 80.7449 13.44 83.7849 13.44C84.8249 13.44 85.6449 13.53 86.2449 13.71L86.5449 13.8C86.7849 13.9 86.9049 14.01 86.9049 14.13C86.9049 14.23 86.8349 14.31 86.6949 14.37C86.1549 14.53 85.6349 14.79 85.1349 15.15C84.6349 15.49 84.3849 15.73 84.3849 15.87L84.5649 16.08C85.2049 16.44 85.6949 17.01 86.0349 17.79C86.3949 18.57 86.5949 19.26 86.6349 19.86L86.6949 20.79C86.6949 22.77 86.1449 24.4 85.0449 25.68C83.9449 26.96 82.4449 27.6 80.5449 27.6C79.5849 27.6 78.7549 27.43 78.0549 27.09C77.3549 26.75 76.8349 26.37 76.4949 25.95C76.1749 25.51 75.9149 25.02 75.7149 24.48C75.4749 23.74 75.3549 22.98 75.3549 22.2C75.3549 21.4 75.4849 20.6 75.7449 19.8C76.0249 19 76.3349 18.41 76.6749 18.03C77.0349 17.65 77.4349 17.34 77.8749 17.1C78.4349 16.8 78.8849 16.65 79.2249 16.65C79.5649 16.65 79.7349 16.72 79.7349 16.86L79.5549 17.16C79.1149 17.68 78.7949 18.36 78.5949 19.2C78.4149 20.04 78.3249 20.79 78.3249 21.45C78.3249 22.09 78.4049 22.73 78.5649 23.37C78.7249 24.01 78.9049 24.49 79.1049 24.81C79.3049 25.11 79.5349 25.34 79.7949 25.5C80.1749 25.74 80.5749 25.86 80.9949 25.86C81.4149 25.86 81.8249 25.7 82.2249 25.38C82.6249 25.04 82.9149 24.6 83.0949 24.06C83.4549 23.06 83.6349 22.03 83.6349 20.97C83.6349 19.29 83.2049 17.99 82.3449 17.07C81.5049 16.15 80.2549 15.69 78.5949 15.69ZM87.8025 15.3L87.8925 14.1C87.9125 13.92 88.0525 13.83 88.3125 13.83H89.3625L89.2425 11.43V11.31C89.2425 10.85 89.5925 10.41 90.2925 9.99C90.9925 9.57 91.6325 9.36 92.2125 9.36C92.3925 9.36 92.4825 9.44 92.4825 9.6V9.63C92.4025 10.17 92.3225 11.56 92.2425 13.8C93.1225 13.8 93.6825 13.78 93.9225 13.74C94.1625 13.7 94.2925 13.68 94.3125 13.68C94.4525 13.68 94.5225 13.8 94.5225 14.04C94.5225 14.28 94.4125 14.59 94.1925 14.97C93.9725 15.33 93.7325 15.52 93.4725 15.54H92.2125C92.1925 16.22 92.1825 17.37 92.1825 18.99C92.1825 20.59 92.1925 21.91 92.2125 22.95C92.2525 23.99 92.2925 24.78 92.3325 25.32C92.3725 25.84 92.4125 26.26 92.4525 26.58C92.5125 26.9 92.5525 27.13 92.5725 27.27C92.6125 27.41 92.6325 27.5 92.6325 27.54C92.6325 27.74 92.5025 27.85 92.2425 27.87C91.4625 27.87 90.6825 27.76 89.9025 27.54C89.1425 27.32 88.7625 26.94 88.7625 26.4C89.1825 23.04 89.3925 19.43 89.3925 15.57C88.8525 15.57 88.4425 15.59 88.1625 15.63H88.1325C87.9525 15.63 87.8425 15.52 87.8025 15.3ZM98.0515 10.95L97.3315 10.92C96.7915 10.92 96.4415 11.05 96.2815 11.31C96.2415 11.37 96.1915 11.4 96.1315 11.4C95.8715 11.4 95.7415 10.96 95.7415 10.08C95.7415 9.18 95.8715 8.61 96.1315 8.37C96.4115 8.13 96.8815 8.01 97.5415 8.01C98.2215 8.01 98.6815 8.13 98.9215 8.37C99.1615 8.59 99.2815 8.97 99.2815 9.51C99.2815 10.05 99.1915 10.43 99.0115 10.65C98.8315 10.85 98.5115 10.95 98.0515 10.95ZM95.6515 26.1L95.9815 19.11C95.9815 17.45 95.7915 16.32 95.4115 15.72C95.2915 15.52 95.1515 15.37 94.9915 15.27C94.8715 15.23 94.8115 15.15 94.8115 15.03C94.8115 14.67 95.3215 14.32 96.3415 13.98C97.3615 13.64 98.1015 13.47 98.5615 13.47C99.0415 13.47 99.2915 13.59 99.3115 13.83C99.3115 14.23 99.2515 15.37 99.1315 17.25C99.0315 19.11 98.9815 21.07 98.9815 23.13C98.9815 25.19 99.1015 26.47 99.3415 26.97C99.4015 27.07 99.4315 27.17 99.4315 27.27C99.4315 27.53 99.0515 27.66 98.2915 27.66C97.5315 27.66 96.7515 27.46 95.9515 27.06C95.7515 26.96 95.6515 26.64 95.6515 26.1ZM105.16 19.5L105.31 25.5C105.31 26.76 105.14 27.87 104.8 28.83C104.48 29.81 104.08 30.54 103.6 31.02C102.62 32.04 101.76 32.62 101.02 32.76L100.51 32.88C100.21 32.88 100.06 32.79 100.06 32.61L100.21 32.16C101.67 30.14 102.4 25.18 102.4 17.28C102.4 16.56 102.39 16.02 102.37 15.66C101.95 15.66 101.53 15.69 101.11 15.75H101.08C100.86 15.75 100.75 15.64 100.75 15.42L100.84 14.28C100.86 14.1 101 14.01 101.26 14.01H102.34V12L102.4 9.15C102.4 9.01 102.42 8.86 102.46 8.7C102.52 8.52 102.74 8.26 103.12 7.92C103.5 7.56 104.06 7.24 104.8 6.96C105.54 6.66 106.17 6.51 106.69 6.51C107.23 6.51 107.5 6.67 107.5 6.99C107.5 7.11 107.41 7.21 107.23 7.29C106.65 7.47 106.17 7.99 105.79 8.85C105.43 9.69 105.25 11.13 105.25 13.17V14.01C106.27 13.97 106.94 13.92 107.26 13.86C107.4 13.86 107.47 13.98 107.47 14.22C107.47 14.46 107.36 14.76 107.14 15.12C106.94 15.46 106.68 15.64 106.36 15.66C106.06 15.66 105.68 15.65 105.22 15.63C105.18 17.15 105.16 18.44 105.16 19.5ZM114.334 35.31C114.334 35.55 114.214 35.67 113.974 35.67H113.944C113.284 35.67 112.534 35.44 111.694 34.98C110.874 34.52 110.464 33.99 110.464 33.39C110.464 32.79 110.844 31.74 111.604 30.24C112.364 28.76 112.744 27.77 112.744 27.27C112.744 26.73 112.484 25.76 111.964 24.36C111.304 22.54 110.774 21.06 110.374 19.92C109.994 18.78 109.574 17.78 109.114 16.92C108.674 16.04 108.354 15.52 108.154 15.36L107.854 15.15C107.634 15.03 107.524 14.9 107.524 14.76C107.524 14.48 107.954 14.2 108.814 13.92C109.694 13.62 110.464 13.47 111.124 13.47C111.424 13.47 111.674 13.71 111.874 14.19C112.234 15.13 112.624 16.43 113.044 18.09C114.064 21.49 114.704 23.19 114.964 23.19C115.144 23.19 115.504 22.49 116.044 21.09C116.604 19.69 116.884 18.56 116.884 17.7C116.884 16.2 116.444 15.32 115.564 15.06C115.364 15.02 115.264 14.92 115.264 14.76C115.264 14.4 115.734 14.06 116.674 13.74C117.614 13.4 118.464 13.23 119.224 13.23C119.884 13.23 120.214 13.66 120.214 14.52C120.214 15.18 120.074 15.95 119.794 16.83C119.514 17.71 119.254 18.41 119.014 18.93C118.774 19.43 118.174 20.61 117.214 22.47C116.274 24.31 115.494 25.93 114.874 27.33C114.194 29.01 113.854 30.72 113.854 32.46C113.854 33.38 113.934 34.07 114.094 34.53C114.254 34.99 114.334 35.25 114.334 35.31Z" fill="white"/>
<defs>
<clipPath id="clip0_33_165">
<rect width="40" height="40" fill="white"/>
</clipPath>
</defs>
</svg>
